<?xml version="1.0" standalone="no"?>
<!DOCTYPE svg PUBLIC "-//W3C//DTD SVG 20010904//EN"
 "http://www.w3.org/TR/2001/REC-SVG-20010904/DTD/svg10.dtd">
<svg version="1.0" xmlns="http://www.w3.org/2000/svg"
 width="400.000000pt" height="400.000000pt" viewBox="0 0 400.000000 400.000000"
 preserveAspectRatio="xMidYMid meet">
<metadata>
Created by potrace 1.14, written by Peter Selinger 2001-2017
</metadata>
<g transform="translate(0.000000,400.000000) scale(0.100000,-0.100000)"
fill="#000000" stroke="none">
<path d="M1815 3586 c-162 -26 -357 -106 -483 -198 -129 -95 -265 -259 -323
-391 -23 -53 -26 -55 -70 -61 -55 -7 -137 -47 -174 -84 -68 -67 -101 -146
-121 -287 -1 -11 -3 -84 -3 -162 l-1 -143 -47 0 c-52 0 -118 -26 -145 -56 -46
-52 -49 -77 -48 -411 1 -336 2 -340 52 -398 39 -45 85 -55 251 -55 l152 0 35
-47 c68 -91 183 -155 305 -168 125 -14 136 -17 171 -47 65 -58 99 -165 110
-353 4 -69 12 -123 23 -145 29 -62 132 -112 265 -128 70 -9 386 -9 466 0 147
15 257 71 279 141 5 18 12 79 15 137 7 124 10 146 36 225 23 71 69 130 113
149 18 7 66 16 107 19 41 4 93 13 115 20 93 30 184 95 225 162 l21 34 168 3
c164 3 169 4 209 31 80 52 81 61 81 427 0 294 -1 325 -18 358 -34 67 -93 102
-171 102 l-50 0 -1 138 c0 75 -2 146 -3 157 -17 125 -30 169 -72 237 -48 76
-131 130 -224 143 -25 4 -45 7 -45 8 0 1 -17 37 -39 80 -122 246 -338 430
-611 519 -157 51 -387 69 -550 44z"/>
</g>
</svg>
